{"accessors" : [{"bufferView" : 0, "byteOffset" : 0, "componentType" : 5123, "count" : 1836, "type" : "SCALAR", "max" : [1547], "min" : [0]}, {"bufferView" : 1, "byteOffset" : 0, "componentType" : 5126, "count" : 1548, "type" : "VEC3", "max" : [36.25152587890625, 36.25152587890625, 0.1999969482421875], "min" : [-36.251495361328125, -36.25151062011719, -0.19991302490234375], "name" : "POSITION"}, {"bufferView" : 1, "byteOffset" : 12, "componentType" : 5126, "count" : 1548, "type" : "VEC2", "max" : [1, 0.9924038648605347], "min" : [0, 0], "name" : "TEXCOORD_0"}, {"bufferView" : 0, "byteOffset" : 3672, "componentType" : 5123, "count" : 3480, "type" : "SCALAR", "max" : [2928], "min" : [0]}, {"bufferView" : 2, "byteOffset" : 0, "componentType" : 5126, "count" : 2929, "type" : "VEC3", "max" : [400.14776611328125, 399.3681640625, 52.12333679199219], "min" : [-398.0812072753906, -400.4383544921875, 0], "name" : "POSITION"}, {"bufferView" : 2, "byteOffset" : 12, "componentType" : 5126, "count" : 2929, "type" : "VEC2", "max" : [1, 0.9648776054382324], "min" : [0, -0], "name" : "TEXCOORD_0"}, {"bufferView" : 0, "byteOffset" : 10632, "componentType" : 5123, "count" : 81, "type" : "SCALAR", "max" : [67], "min" : [0]}, {"bufferView" : 3, "byteOffset" : 0, "componentType" : 5126, "count" : 68, "type" : "VEC3", "max" : [272, 0, 271.5703430175781], "min" : [-270.2969055175781, 0, -271.5705261230469], "name" : "POSITION"}, {"bufferView" : 3, "byteOffset" : 12, "componentType" : 5126, "count" : 68, "type" : "VEC2", "max" : [0.9984460473060608, 0.993798017501831], "min" : [0, 0], "name" : "TEXCOORD_0"}, {"bufferView" : 0, "byteOffset" : 10796, "componentType" : 5123, "count" : 81, "type" : "SCALAR", "max" : [67], "min" : [0]}, {"bufferView" : 4, "byteOffset" : 0, "componentType" : 5126, "count" : 68, "type" : "VEC3", "max" : [299.9998779296875, 0, 299.5260314941406], "min" : [-298.12164306640625, -5.684341886080802E-14, -299.5262451171875], "name" : "POSITION"}, {"bufferView" : 4, "byteOffset" : 12, "componentType" : 5126, "count" : 68, "type" : "VEC2", "max" : [0.9984460473060608, 0.993798017501831], "min" : [0, 0], "name" : "TEXCOORD_0"}, {"bufferView" : 0, "byteOffset" : 10960, "componentType" : 5123, "count" : 4392, "type" : "SCALAR", "max" : [3751], "min" : [0]}, {"bufferView" : 5, "byteOffset" : 0, "componentType" : 5126, "count" : 3752, "type" : "VEC3", "max" : [440.02813720703125, 97.99996948242188, 22.70625114440918], "min" : [-454.5560302734375, -98.00000762939453, -25.293760299682617], "name" : "POSITION"}, {"bufferView" : 5, "byteOffset" : 12, "componentType" : 5126, "count" : 3752, "type" : "VEC2", "max" : [1, 0.8999999761581421], "min" : [0, -0], "name" : "TEXCOORD_0"}, {"bufferView" : 0, "byteOffset" : 19744, "componentType" : 5123, "count" : 1380, "type" : "SCALAR", "max" : [1264], "min" : [0]}, {"bufferView" : 6, "byteOffset" : 0, "componentType" : 5126, "count" : 1265, "type" : "VEC3", "max" : [854.0789184570312, 325.7301330566406, 60.000213623046875], "min" : [403.0940246582031, -771.0892333984375, -0.00014689844101667404], "name" : "POSITION"}, {"bufferView" : 6, "byteOffset" : 12, "componentType" : 5126, "count" : 1265, "type" : "VEC2", "max" : [1, 0.5], "min" : [0, -0], "name" : "TEXCOORD_0"}, {"bufferView" : 0, "byteOffset" : 22504, "componentType" : 5123, "count" : 339, "type" : "SCALAR", "max" : [284], "min" : [0]}, {"bufferView" : 7, "byteOffset" : 0, "componentType" : 5126, "count" : 285, "type" : "VEC3", "max" : [853.8467407226562, 325.5586242675781, 0.0002156903938157484], "min" : [403.0946350097656, -770.46923828125, -0.00013369039515964687], "name" : "POSITION"}, {"bufferView" : 7, "byteOffset" : 12, "componentType" : 5126, "count" : 285, "type" : "VEC2", "max" : [0.41126006841659546, 0.9986914396286011], "min" : [0, -0], "name" : "TEXCOORD_0"}, {"bufferView" : 0, "byteOffset" : 23184, "componentType" : 5123, "count" : 339, "type" : "SCALAR", "max" : [280], "min" : [0]}, {"bufferView" : 8, "byteOffset" : 0, "componentType" : 5126, "count" : 281, "type" : "VEC3", "max" : [854.0789184570312, 325.7301330566406, 0.00019614749180618674], "min" : [403.0940246582031, -771.0892333984375, -0.00014689844101667404], "name" : "POSITION"}, {"bufferView" : 8, "byteOffset" : 12, "componentType" : 5126, "count" : 281, "type" : "VEC2", "max" : [0.4111751616001129, 0.9984723329544067], "min" : [0, -0], "name" : "TEXCOORD_0"}, {"bufferView" : 0, "byteOffset" : 23864, "componentType" : 5123, "count" : 10440, "type" : "SCALAR", "max" : [8728], "min" : [0]}, {"bufferView" : 9, "byteOffset" : 0, "componentType" : 5126, "count" : 8729, "type" : "VEC3", "max" : [388.3393859863281, 387.72589111328125, 543.4028930664062], "min" : [-385.90771484375, -387.72613525390625, 0], "name" : "POSITION"}, {"bufferView" : 9, "byteOffset" : 12, "componentType" : 5126, "count" : 8729, "type" : "VEC2", "max" : [1, 0.9965559244155884], "min" : [0, -0], "name" : "TEXCOORD_0"}, {"bufferView" : 0, "byteOffset" : 44744, "componentType" : 5123, "count" : 81, "type" : "SCALAR", "max" : [67], "min" : [0]}, {"bufferView" : 10, "byteOffset" : 0, "componentType" : 5126, "count" : 68, "type" : "VEC3", "max" : [224.00001525878906, 0, 223.64614868164062], "min" : [-222.5974884033203, 0, -223.64622497558594], "name" : "POSITION"}, {"bufferView" : 10, "byteOffset" : 12, "componentType" : 5126, "count" : 68, "type" : "VEC2", "max" : [0.9984460473060608, 0.993798017501831], "min" : [0, 0], "name" : "TEXCOORD_0"}, {"bufferView" : 0, "byteOffset" : 44908, "componentType" : 5123, "count" : 81, "type" : "SCALAR", "max" : [68], "min" : [0]}, {"bufferView" : 11, "byteOffset" : 0, "componentType" : 5126, "count" : 69, "type" : "VEC3", "max" : [200.00003051757812, 0, 199.6840057373047], "min" : [-198.7477569580078, 0, -199.6841583251953], "name" : "POSITION"}, {"bufferView" : 11, "byteOffset" : 12, "componentType" : 5126, "count" : 69, "type" : "VEC2", "max" : [0.9984460473060608, 0.993798017501831], "min" : [0, 0], "name" : "TEXCOORD_0"}], "asset" : {"generator" : "Aspose.3D 23.11.1", "version" : "2.0"}, "buffers" : [{"uri" : "data:application/octet-stream;base64,", "byteLength" : 495720}], "bufferViews" : [{"buffer" : 0, "byteOffset" : 0, "byteLength" : 45072, "target" : 34963}, {"buffer" : 0, "byteOffset" : 45076, "byteLength" : 36720, "byteStride" : 20, "target" : 34962}, {"buffer" : 0, "byteOffset" : 81800, "byteLength" : 69600, "byteStride" : 20, "target" : 34962}, {"buffer" : 0, "byteOffset" : 151404, "byteLength" : 1620, "byteStride" : 20, "target" : 34962}, {"buffer" : 0, "byteOffset" : 153028, "byteLength" : 1620, "byteStride" : 20, "target" : 34962}, {"buffer" : 0, "byteOffset" : 154652, "byteLength" : 87840, "byteStride" : 20, "target" : 34962}, {"buffer" : 0, "byteOffset" : 242496, "byteLength" : 27600, "byteStride" : 20, "target" : 34962}, {"buffer" : 0, "byteOffset" : 270100, "byteLength" : 6780, "byteStride" : 20, "target" : 34962}, {"buffer" : 0, "byteOffset" : 276884, "byteLength" : 6780, "byteStride" : 20, "target" : 34962}, {"buffer" : 0, "byteOffset" : 283668, "byteLength" : 208800, "byteStride" : 20, "target" : 34962}, {"buffer" : 0, "byteOffset" : 492472, "byteLength" : 1620, "byteStride" : 20, "target" : 34962}, {"buffer" : 0, "byteOffset" : 494096, "byteLength" : 1620, "byteStride" : 20, "target" : 34962}], "images" : [{"uri" : "coffee-f.jpg"}], "materials" : [{"name" : "Mat.4", "pbrMetallicRoughness" : {"baseColorFactor" : [1, 1, 1, 1], "baseColorTexture" : {"index" : 0, "texCoord" : 0}, "metallicFactor" : 1, "roughnessFactor" : 1}, "emissiveFactor" : [0, 0, 0], "alphaMode" : "OPAQUE", "doubleSided" : false}, {"name" : "Mat.2", "pbrMetallicRoughness" : {"baseColorFactor" : [0.3883495032787323, 0.3883495032787323, 0.3883495032787323, 1], "metallicFactor" : 1, "roughnessFactor" : 1}, "emissiveFactor" : [0, 0, 0], "alphaMode" : "OPAQUE", "doubleSided" : false}, {"name" : "Mat.2", "pbrMetallicRoughness" : {"baseColorFactor" : [0.3883495032787323, 0.3883495032787323, 0.3883495032787323, 1], "metallicFactor" : 1, "roughnessFactor" : 1}, "emissiveFactor" : [0, 0, 0], "alphaMode" : "OPAQUE", "doubleSided" : false}, {"name" : "Mat.2", "pbrMetallicRoughness" : {"baseColorFactor" : [0.3883495032787323, 0.3883495032787323, 0.3883495032787323, 1], "metallicFactor" : 1, "roughnessFactor" : 1}, "emissiveFactor" : [0, 0, 0], "alphaMode" : "OPAQUE", "doubleSided" : false}, {"name" : "Mat.2", "pbrMetallicRoughness" : {"baseColorFactor" : [0.3883495032787323, 0.3883495032787323, 0.3883495032787323, 1], "metallicFactor" : 1, "roughnessFactor" : 1}, "emissiveFactor" : [0, 0, 0], "alphaMode" : "OPAQUE", "doubleSided" : false}, {"name" : "Mat.1", "pbrMetallicRoughness" : {"baseColorFactor" : [1, 1, 1, 1], "metallicFactor" : 1, "roughnessFactor" : 1}, "emissiveFactor" : [0, 0, 0], "alphaMode" : "OPAQUE", "doubleSided" : false}, {"name" : "Mat.1", "pbrMetallicRoughness" : {"baseColorFactor" : [1, 1, 1, 1], "metallicFactor" : 1, "roughnessFactor" : 1}, "emissiveFactor" : [0, 0, 0], "alphaMode" : "OPAQUE", "doubleSided" : false}, {"name" : "Mat.1", "pbrMetallicRoughness" : {"baseColorFactor" : [1, 1, 1, 1], "metallicFactor" : 1, "roughnessFactor" : 1}, "emissiveFactor" : [0, 0, 0], "alphaMode" : "OPAQUE", "doubleSided" : false}, {"name" : "Mat.1", "pbrMetallicRoughness" : {"baseColorFactor" : [1, 1, 1, 1], "metallicFactor" : 1, "roughnessFactor" : 1}, "emissiveFactor" : [0, 0, 0], "alphaMode" : "OPAQUE", "doubleSided" : false}, {"name" : "Mat.1", "pbrMetallicRoughness" : {"baseColorFactor" : [1, 1, 1, 1], "metallicFactor" : 1, "roughnessFactor" : 1}, "emissiveFactor" : [0, 0, 0], "alphaMode" : "OPAQUE", "doubleSided" : false}, {"name" : "Mat.1", "pbrMetallicRoughness" : {"baseColorFactor" : [1, 1, 1, 1], "metallicFactor" : 1, "roughnessFactor" : 1}, "emissiveFactor" : [0, 0, 0], "alphaMode" : "OPAQUE", "doubleSided" : false}], "meshes" : [{"primitives" : [{"attributes" : {"POSITION" : 1, "TEXCOORD_0" : 2}, "indices" : 0, "material" : 0, "mode" : 4}], "name" : "Disc"}, {"primitives" : [{"attributes" : {"POSITION" : 4, "TEXCOORD_0" : 5}, "indices" : 3, "material" : 1, "mode" : 4}], "name" : "Loft_2"}, {"primitives" : [{"attributes" : {"POSITION" : 7, "TEXCOORD_0" : 8}, "indices" : 6, "material" : 2, "mode" : 4}], "name" : "Cap_1"}, {"primitives" : [{"attributes" : {"POSITION" : 10, "TEXCOORD_0" : 11}, "indices" : 9, "material" : 3, "mode" : 4}], "name" : "Cap_2"}, {"primitives" : [{"attributes" : {"POSITION" : 13, "TEXCOORD_0" : 14}, "indices" : 12, "material" : 4, "mode" : 4}], "name" : "Connect"}, {"primitives" : [{"attributes" : {"POSITION" : 16, "TEXCOORD_0" : 17}, "indices" : 15, "material" : 5, "mode" : 4}], "name" : "Loft_1"}, {"primitives" : [{"attributes" : {"POSITION" : 19, "TEXCOORD_0" : 20}, "indices" : 18, "material" : 6, "mode" : 4}], "name" : "Cap_11"}, {"primitives" : [{"attributes" : {"POSITION" : 22, "TEXCOORD_0" : 23}, "indices" : 21, "material" : 7, "mode" : 4}], "name" : "Cap_21"}, {"primitives" : [{"attributes" : {"POSITION" : 25, "TEXCOORD_0" : 26}, "indices" : 24, "material" : 8, "mode" : 4}], "name" : "Loft"}, {"primitives" : [{"attributes" : {"POSITION" : 28, "TEXCOORD_0" : 29}, "indices" : 27, "material" : 9, "mode" : 4}], "name" : "Cap_12"}, {"primitives" : [{"attributes" : {"POSITION" : 31, "TEXCOORD_0" : 32}, "indices" : 30, "material" : 10, "mode" : 4}], "name" : "Cap_22"}], "nodes" : [{"matrix" : [9.99999985098839, 0, 0, 0, 0, 9.99999985098839, 0, 0, 0, 0, 9.99999985098839, 0, 0.34362792456704483, 136.18102824418156, 373.6369649523948, 1], "mesh" : 0, "name" : "Disc"}, {"matrix" : [1, 2.7755575615628914E-17, 0, 0, -9.143029162896536E-26, 6.123234267825266E-17, -1, 0, -2.7755575615628914E-17, 1, 6.12323375809224E-17, 0, 2.7166871950730638, 8.674779227959789, 28.616714051116787, 1], "mesh" : 2, "name" : "Cap_1"}, {"matrix" : [1, 2.7755575615628914E-17, 0, 0, -9.143029162896536E-26, 6.123234267825266E-17, -1, 0, -2.7755575615628914E-17, 1, 6.12323375809224E-17, 0, 0, 0, 0, 1], "mesh" : 3, "name" : "Cap_2"}, {"children" : [1, 2], "matrix" : [0.9910841883557411, -0.13323691475038357, 0, 0, 0.13323691475038357, 0.9910841883557411, 0, 0, 0, 0, 1, 0, -1.0394286954488052, 140.83968906343398, -139.25899298103167, 1], "mesh" : 1, "name" : "Loft_2"}, {"matrix" : [0.9894943089858546, -0.13302318553591988, -0.05661967591763025, 0, 0.13323691475038357, 0.9910841883557411, 0, 0, 0.0561148664934208, -0.00754383090352519, 0.9983958155155805, 0, -77.80273321564891, -411.6401611024123, -106.49707635496446, 1], "mesh" : 4, "name" : "Connect"}, {"matrix" : [1, -1.3877787807814457E-17, 2.7755575615628914E-17, 0, 6.071532165918825E-18, 1, 6.938893903907228E-18, 0, 0, 0, 1, 0, -0.0001659643694438273, -4.1481430287149124E-05, 59.99999743792614, 1], "mesh" : 6, "name" : "Cap_11"}, {"matrix" : [1, -1.3877787807814457E-17, 2.7755575615628914E-17, 0, 6.071532165918825E-18, 1, 6.938893903907228E-18, 0, 0, 0, 1, 0, 1.8189894035458565E-12, -2.8421709430404007E-13, 4.547473508864641E-13, 1], "mesh" : 7, "name" : "Cap_21"}, {"children" : [5, 6], "matrix" : [0.4804475161366535, -0.06458921261743884, -0.12246797610122001, 0, 0.12137608421778553, -0.016317260208468732, 0.4847696351294274, 0, -0.06661846203180459, -0.49554209417787054, -3.6063795856255882E-09, 0, 79.88189578232323, 129.96093556343067, 338.72836561905785, 1], "mesh" : 5, "name" : "Loft_1"}, {"matrix" : [1, 2.7755575615628914E-17, 0, 0, -9.143029162896536E-26, 6.123234267825266E-17, -1, 0, -2.7755575615628914E-17, 1, 6.12323375809224E-17, 0, 0, 0, 44.465407662609095, 1], "mesh" : 9, "name" : "Cap_12"}, {"matrix" : [1, 2.7755575615628914E-17, 0, 0, -9.143029162896536E-26, 6.123234267825266E-17, -1, 0, -2.7755575615628914E-17, 1, 6.12323375809224E-17, 0, 0, 0, 0, 1], "mesh" : 10, "name" : "Cap_22"}, {"children" : [8, 9], "matrix" : [0.9910841883557411, -0.13323691475038357, 0, 0, 0.13323691475038357, 0.9910841883557411, 0, 0, 0, 0, 1, 0, -1.0394286954488052, 140.83968906343398, -92.97225813608975, 1], "mesh" : 8, "name" : "Loft"}, {"children" : [0, 3, 4, 7, 10], "matrix" : [-0.10000000149011612, 0, 0, 0, 0, 0, 0.10000000149011612, 0, 0, 0.10000000149011612, 0, 0, 446.0445251464844, 57.78168869018555, 214.05612182617188, 1], "name" : "Null_1"}], "samplers" : [{"magFilter" : 9729, "minFilter" : 9729, "wrapS" : 10497, "wrapT" : 10497}], "scene" : 0, "scenes" : [{"nodes" : [11]}], "textures" : [{"sampler" : 0, "source" : 0, "name" : ""}]}