{"accessors" : [{"bufferView" : 0, "byteOffset" : 0, "componentType" : 5123, "count" : 420, "type" : "SCALAR", "max" : [351], "min" : [0]}, {"bufferView" : 1, "byteOffset" : 0, "componentType" : 5126, "count" : 352, "type" : "VEC3", "max" : [-0.06785713881254196, 0.04374999925494194, 0.009999999776482582], "min" : [-0.1287499964237213, -0.04374999925494194, -0.009999999776482582], "name" : "POSITION"}, {"bufferView" : 1, "byteOffset" : 12, "componentType" : 5126, "count" : 352, "type" : "VEC3", "max" : [1.0000044107437134, 1.0000044107437134, 1.0000044107437134], "min" : [-1.0000044107437134, -1.0000044107437134, -0.70710688829422], "name" : "NORMAL"}, {"bufferView" : 1, "byteOffset" : 24, "componentType" : 5126, "count" : 352, "type" : "VEC4", "max" : [1.0000044107437134, 1.0000044107437134, 0.018170597031712532, 1], "min" : [-1.0000044107437134, -1.0000044107437134, -1.0000044107437134, 1], "name" : "TANGENT"}, {"bufferView" : 1, "byteOffset" : 40, "componentType" : 5126, "count" : 352, "type" : "VEC2", "max" : [0.9994999766349792, 0.21362674236297607], "min" : [0.722893476486206, 0.046964168548583984], "name" : "TEXCOORD_0"}, {"bufferView" : 0, "byteOffset" : 840, "componentType" : 5123, "count" : 3240, "type" : "SCALAR", "max" : [2700], "min" : [0]}, {"bufferView" : 2, "byteOffset" : 0, "componentType" : 5126, "count" : 2701, "type" : "VEC3", "max" : [0.06988158077001572, 0.1600000113248825, 0.07000000029802322], "min" : [-0.06988158077001572, 0, -0.06952668726444244], "name" : "POSITION"}, {"bufferView" : 2, "byteOffset" : 12, "componentType" : 5126, "count" : 2701, "type" : "VEC3", "max" : [0.9997866749763489, 1.0000044107437134, 1.0000041723251343], "min" : [-0.9997866749763489, -1.0000044107437134, -1.0000041723251343], "name" : "NORMAL"}, {"bufferView" : 2, "byteOffset" : 24, "componentType" : 5126, "count" : 2701, "type" : "VEC4", "max" : [1.0000030994415283, 0.06561091542243958, 1.0000044107437134, 1], "min" : [-0.9969248175621033, -0.06573164463043213, -1.0000044107437134, 1], "name" : "TANGENT"}, {"bufferView" : 2, "byteOffset" : 40, "componentType" : 5126, "count" : 2701, "type" : "VEC2", "max" : [0.7223934531211853, 0.638553261756897], "min" : [0.0005000000237487257, 0.2776065468788147], "name" : "TEXCOORD_0"}], "asset" : {"generator" : "Aspose.3D 23.11.1", "version" : "2.0"}, "buffers" : [{"uri" : "data:application/octet-stream;base64,", "byteLength" : 183012}], "bufferViews" : [{"buffer" : 0, "byteOffset" : 0, "byteLength" : 7320, "target" : 34963}, {"buffer" : 0, "byteOffset" : 7324, "byteLength" : 20160, "byteStride" : 48, "target" : 34962}, {"buffer" : 0, "byteOffset" : 27488, "byteLength" : 155520, "byteStride" : 48, "target" : 34962}], "meshes" : [{"primitives" : [{"attributes" : {"POSITION" : 1, "NORMAL" : 2, "TANGENT" : 3, "TEXCOORD_0" : 4}, "indices" : 0, "mode" : 4}], "name" : ""}, {"primitives" : [{"attributes" : {"POSITION" : 6, "NORMAL" : 7, "TANGENT" : 8, "TEXCOORD_0" : 9}, "indices" : 5, "mode" : 4}], "name" : ""}], "nodes" : [{"matrix" : [1, 0, 0, 0, 0, 1, 0, 0, 0, 0, 1, 0, 0, 0.0800000057, 0, 1], "mesh" : 0, "name" : "Handle"}, {"mesh" : 1, "name" : "Cup"}, {"children" : [0, 1], "matrix" : [1, 0, 0, 0, 0, 1, 0, 0, 0, 0, 1, 0, -0.0956645459, 0, 0.007032588, 1], "name" : "Cups and Glasses "}], "scene" : 0, "scenes" : [{"nodes" : [2]}]}