{"accessors" : [{"bufferView" : 0, "byteOffset" : 0, "componentType" : 5123, "count" : 420, "type" : "SCALAR", "max" : [351], "min" : [0]}, {"bufferView" : 1, "byteOffset" : 0, "componentType" : 5126, "count" : 352, "type" : "VEC3", "max" : [-0.07423213869333267, 0.04208333417773247, 0.009999999776482582], "min" : [-0.1516076922416687, -0.04208333417773247, -0.009999999776482582], "name" : "POSITION"}, {"bufferView" : 1, "byteOffset" : 12, "componentType" : 5126, "count" : 352, "type" : "VEC3", "max" : [1.0000044107437134, 1.0000044107437134, 1.0000044107437134], "min" : [-0.9999926090240479, -1.0000044107437134, -0.70710688829422], "name" : "NORMAL"}, {"bufferView" : 1, "byteOffset" : 24, "componentType" : 5126, "count" : 352, "type" : "VEC4", "max" : [1.0000044107437134, 0.9999924898147583, 0.04361322522163391, 1], "min" : [-1.0000044107437134, -0.9999924898147583, -1.0000044107437134, 1], "name" : "TANGENT"}, {"bufferView" : 1, "byteOffset" : 40, "componentType" : 5126, "count" : 352, "type" : "VEC2", "max" : [0.9994999766349792, 0.20433872938156128], "min" : [0.734699547290802, 0.045746564865112305], "name" : "TEXCOORD_0"}, {"bufferView" : 0, "byteOffset" : 840, "componentType" : 5123, "count" : 3888, "type" : "SCALAR", "max" : [3240], "min" : [0]}, {"bufferView" : 2, "byteOffset" : 0, "componentType" : 5126, "count" : 3241, "type" : "VEC3", "max" : [0.09451669454574585, 0.125, 0.09467686712741852], "min" : [-0.09451669454574585, 0, -0.09403669834136963], "name" : "POSITION"}, {"bufferView" : 2, "byteOffset" : 12, "componentType" : 5126, "count" : 3241, "type" : "VEC3", "max" : [0.9882549047470093, 1.0000042915344238, 0.9846228957176208], "min" : [-0.9883162379264832, -1.0000044107437134, -0.9894186854362488], "name" : "NORMAL"}, {"bufferView" : 2, "byteOffset" : 24, "componentType" : 5126, "count" : 3241, "type" : "VEC4", "max" : [0.9998598098754883, 0.06561091542243958, 1.0000044107437134, 1], "min" : [-0.9968913793563843, -0.06573164463043213, -0.9997887015342712, 1], "name" : "TANGENT"}, {"bufferView" : 2, "byteOffset" : 40, "componentType" : 5126, "count" : 3241, "type" : "VEC2", "max" : [0.7341995239257812, 0.6326502561569214], "min" : [0.0005000000237487257, 0.26580047607421875], "name" : "TEXCOORD_0"}], "asset" : {"generator" : "Aspose.3D 23.11.1", "version" : "2.0"}, "buffers" : [{"uri" : "data:application/octet-stream;base64,", "byteLength" : 215412}], "bufferViews" : [{"buffer" : 0, "byteOffset" : 0, "byteLength" : 8616, "target" : 34963}, {"buffer" : 0, "byteOffset" : 8620, "byteLength" : 20160, "byteStride" : 48, "target" : 34962}, {"buffer" : 0, "byteOffset" : 28784, "byteLength" : 186624, "byteStride" : 48, "target" : 34962}], "meshes" : [{"primitives" : [{"attributes" : {"POSITION" : 1, "NORMAL" : 2, "TANGENT" : 3, "TEXCOORD_0" : 4}, "indices" : 0, "mode" : 4}], "name" : ""}, {"primitives" : [{"attributes" : {"POSITION" : 6, "NORMAL" : 7, "TANGENT" : 8, "TEXCOORD_0" : 9}, "indices" : 5, "mode" : 4}], "name" : ""}], "nodes" : [{"matrix" : [1, 0, 0, 0, 0, 1, 0, 0, 0, 0, 1, 0, 0, 0.0625, 0, 1], "mesh" : 0, "name" : "Handle"}, {"mesh" : 1, "name" : "Cup"}, {"children" : [0, 1], "matrix" : [1, 0, 0, 0, 0, 1, 0, 0, 0, 0, 1, 0, 1.5, 0, -1.31134172E-07, 1], "name" : "Cups and Glasses "}], "scene" : 0, "scenes" : [{"nodes" : [2]}]}